<?xml version="1.0" encoding="UTF-8"?>
<!DOCTYPE svg PUBLIC "-//W3C//DTD SVG 1.1//EN" "http://www.w3.org/Graphics/SVG/1.1/DTD/svg11.dtd">
<!-- Creator: CorelDRAW 2020 (64-Bit) -->
<svg xmlns="http://www.w3.org/2000/svg" xml:space="preserve" width="145mm" height="57mm" version="1.1" shape-rendering="geometricPrecision" text-rendering="geometricPrecision" image-rendering="optimizeQuality" fill-rule="evenodd" clip-rule="evenodd"
viewBox="0 0 14500 5700"
 xmlns:xlink="http://www.w3.org/1999/xlink"
 xmlns:xodm="http://www.corel.com/coreldraw/odm/2003">
 <g id="Capa_x0020_1">
  <metadata id="CorelCorpID_0Corel-Layer"/>
  <g id="Capa_2_1_">
   <g id="Capa_1-2">
    <g id="Capa_1-3">
     <g id="_97255984">
      <path id="_56964680" fill="#666666" fill-rule="nonzero" d="M10392.81 1923.39l593.79 -876.47 -537.72 0 -307.26 511.6 -302.66 -511.6 -537.71 0 593.79 876.47 -614.53 912.58 537.71 0 327.24 -537.71 329.54 537.71 537.71 0 -619.9 -912.58zm-1325.08 -43.01c0,-490.86 -281.92,-854.96 -779.68,-854.96 -460.9,0 -779.68,330.31 -779.68,914.88 0,723.61 405.59,916.42 828.08,916.42 257.33,14.6 507.75,-89.11 679.05,-281.92l-270.39 -265.78c-100.63,117.53 -250.42,179.75 -404.82,169 -203.56,13.06 -379.47,-141.34 -392.53,-345.67 -0.77,-17.67 -0.77,-35.34 0.77,-52.23l1119.2 -0.02 0 -199.72zm-1119.21 -106.01c0.77,-66.06 14.6,-131.36 40.71,-192.04 81.43,-165.15 281.92,-232.75 446.3,-151.33 65.29,32.26 118.3,85.27 151.33,151.33 26.12,60.68 39.94,125.98 40.71,192.04l-679.05 0zm-828.08 683.67c-113.69,0 -153.63,-55.31 -153.63,-162.08l0 -1905.05 -450.92 0 0 1933.46c0,253.49 153.63,511.6 523.12,511.6l253.5 0 0 -377.94 -172.07 0.01zm-1297.43 -1432.63c-169.76,-3.07 -332.61,65.29 -449.37,188.97l0 -167.46 -437.09 0 0 1789.05 447.07 0 0 -1075.43c0,-225.84 153.63,-331.08 288.83,-331.08 91.41,-2.3 178.21,37.64 235.83,108.31l337.22 -341.06c-109.08,-115.99 -263.48,-178.98 -422.49,-171.3zm-2163.91 0c-298.81,0 -470.88,55.31 -644.49,248.12l284.99 278.07c80.66,-105.24 210.48,-161.31 342.6,-148.26 236.59,0 332.61,85.27 332.61,281.15l0 89.87 -421.71 0.01c-415.58,0 -614.53,230.45 -614.53,517.74 -4.61,148.26 47.63,292.67 146.72,402.52 125.21,113.69 291.9,171.3 460.9,158.24 165.15,12.29 327.24,-51.47 440.16,-172.84l0 153.63 434.77 0.01 0 -1175.29c0,-419.42 -260.41,-632.97 -762.02,-632.97zm315.72 1152.25c10.75,81.43 -12.29,162.85 -63.76,226.61 -76.82,76.82 -159.01,85.27 -282.68,85.27 -175.14,0 -258.1,-82.96 -258.1,-205.1 0,-122.14 89.87,-202.79 251.19,-202.79l353.35 -0.01 0 96.02zm-1945.76 -1786.75l-636.81 1321.24 -637.57 -1321.24 -470.88 0 0 2445.06 477.8 0 0 -1426.48 470.88 928.71 321.86 0 467.81 -928.71 0 1426.48 476.26 0 0 -2445.06 -469.35 0z"/>
      <path id="_57951352" fill="#666666" fill-rule="nonzero" d="M13950.16 5006.03c-132.12,0 -170.53,-62.22 -170.53,-186.66l0 -1357.35 -118.3 0 0 1358.11c0,174.37 88.34,288.83 268.09,288.83l104.47 0 0 -102.93 -83.73 0zm-1110.76 -1026.27c-180.52,0 -298.05,39.18 -393.3,170.53l86.8 76.82c68.37,-101.4 149.79,-139.81 307.26,-139.81 230.45,0 315.71,94.48 315.71,272.7l0 125.21 -361.02 0c-244.28,0 -389.46,118.3 -389.46,320.32 -1.54,80.66 26.89,158.24 80.66,218.16 72.98,76.82 163.62,102.93 328.77,102.93 126.75,12.29 252.73,-33.8 341.06,-125.21l0 107.54 117.53 0.01 0 -762.78c-0.77,-234.29 -139.8,-366.42 -434.01,-366.42zm315.71 741.28c8.45,76.05 -13.83,152.86 -62.22,212.01 -77.58,66.06 -178.21,96.79 -278.84,86.8 -200.49,0 -291.9,-69.9 -291.9,-217.39 0,-147.49 92.95,-225.07 285.76,-225.07l347.2 0 0 143.65zm-940.23 -639.11l0 -88.34 -255.02 0 0 -356.43 -118.3 0 0 356.43 -153.63 0 0 88.34 153.63 0 0 737.44c0,168.23 92.95,289.6 268.86,289.6l102.16 -0.01 0 -102.93 -76.82 0c-118.3,0 -172.07,-69.13 -172.07,-185.9l0 -738.2 251.19 0zm-921.79 -88.34l0 1115.37 118.3 0 0 -1115.37 -118.3 0zm-13.83 -531.57l0 145.18 145.19 0 0 -145.18 -145.19 0zm-467.04 614.53c-74.51,-65.29 -172.07,-100.63 -271.16,-96.79 -129.82,-10.75 -255.8,47.63 -331.08,153.63l0 -139.81 -117.53 0.01 0 1648.47 117.53 0 0 -676.75c74.51,107.54 200.49,168.23 331.08,159.01 99.86,3.07 197.42,-32.26 273.47,-97.56 112.92,-113.69 143.65,-298.81 143.65,-474.72 0,-175.91 -30.73,-361.04 -143.65,-473.96l-2.31 -1.53zm-290.36 941.77c-273.47,0 -314.18,-236.59 -314.18,-467.81 0,-231.22 40.71,-467.04 314.18,-467.04 273.47,0 315.71,235.83 315.71,467.04 0,231.21 -39.94,469.35 -313.41,469.35l-2.3 -1.54zm-1256.72 -1038.56c-180.52,0 -298.05,39.18 -393.3,170.53l84.5 76.82c70.67,-101.4 153.63,-139.81 307.26,-139.81 230.45,0 314.18,94.48 314.18,272.7l0 125.21 -361.03 0c-242.74,0 -384.08,118.3 -384.08,320.32 -3.07,79.89 24.58,157.47 76.82,218.16 70.67,76.82 162.85,102.93 328.77,102.93 126.75,12.29 252.73,-34.57 340.3,-127.51l0 109.85 118.29 0 0 -762.78c0.77,-234.29 -137.5,-366.42 -431.71,-366.42zm313.41 741.28c9.22,76.05 -13.06,152.86 -62.22,212.01 -76.82,66.06 -176.68,97.56 -277.31,86.8 -202.03,0 -291.9,-69.9 -291.9,-217.39 0,-147.49 92.95,-225.07 285.76,-225.07l345.67 0 0 143.65zm-1569.35 291.9c-117.53,1.54 -230.45,-44.55 -312.64,-128.28 -115.23,-118.3 -125.98,-244.28 -125.98,-597.63 0,-353.35 8.45,-480.87 126.75,-599.17 172.84,-171.3 451.68,-170.53 623.75,2.3 64.53,65.29 107.54,149.79 122.14,240.43l126.74 0.01c-33.03,-281.92 -276.54,-491.62 -559.99,-482.41 -154.4,-0.77 -302.66,60.68 -411.73,170.53 -153.63,149.79 -153.63,294.97 -153.63,668.3 0,373.33 0,517.74 153.63,670.61 109.85,107.54 258.1,168.23 411.73,168.23 283.45,7.68 526.19,-202.03 559.99,-483.17l-121.37 0c-34.57,215.09 -221.23,372.56 -438.62,370.25l-0.77 0zm-1034.71 -926.4c-80.66,-73.74 -187.43,-112.15 -296.51,-106.77 -125.21,-3.07 -244.28,49.93 -325.7,145.18l0 -131.36 -119.84 0 0 1115.37 119.84 0 0 -691.35c0,-210.48 114.46,-331.85 314.18,-331.85 199.72,0 307.26,118.3 307.26,331.85l0 691.35 117.53 0 0 -712.09c5.37,-115.22 -36.87,-227.37 -116.76,-310.33zm-1568.59 -106.78c-181.29,0 -298.81,39.18 -393.3,170.53l84.5 76.82c70.67,-101.4 153.63,-139.81 307.26,-139.81 225.84,0 314.95,94.48 314.95,272.7l0 125.21 -358.73 0c-245.04,0 -390.23,118.3 -390.23,320.32 -1.54,80.66 27.65,158.24 81.43,218.16 72.21,76.82 163.62,102.93 328.77,102.93 126.75,12.29 251.96,-33.8 340.3,-125.21l0 107.54 116.76 0.01 0 -762.78c0,-234.29 -138.27,-366.42 -431.71,-366.42zm314.95 741.28c9.99,76.05 -11.52,152.86 -59.92,212.01 -76.05,66.06 -176.68,97.56 -276.54,86.8 -202.79,0 -291.9,-69.9 -291.9,-217.39 0,-147.49 92.95,-225.07 284.99,-225.07l347.21 0 -3.84 143.65zm-1160.69 -634.5c-79.89,-72.98 -185.13,-111.38 -293.44,-106.77 -155.17,-6.15 -301.89,72.21 -384.08,204.33 -69.13,-130.59 -207.4,-210.48 -354.89,-204.33 -126.75,-3.07 -247.35,49.93 -331.08,145.18l0 -131.36 -118.3 0 0 1115.37 118.3 0 0 -691.35c0,-210.48 115.99,-331.85 315.71,-331.85 199.72,0 307.26,118.3 307.26,331.85l0 691.35 117.54 0 0 -712.09c-10.75,-162.08 111.38,-301.12 273.47,-311.87 13.83,-0.77 28.42,-0.77 42.25,0 199.72,0 307.26,118.3 307.26,331.85l0 691.35 116.76 -0.01 0 -711.32c5.37,-115.22 -36.88,-227.37 -116.76,-310.33zm-2001.83 -92.95l0 691.35c0,210.48 -115.99,334.15 -315.71,334.15 -199.72,0 -307.26,-118.3 -307.26,-334.15l0 -691.35 -115.24 0 0 713.62c-6.15,115.22 36.1,227.38 115.22,311.11 80.66,72.98 187.43,111.38 296.51,106.01 125.21,3.07 245.04,-50.7 326.47,-145.95l0 130.59 119.07 -0.01 0 -1115.37 -119.06 0zm-1285.91 -531.57l0 761.25 -858.8 0 0 -761.25 -125.21 0 0 1646.94 125.21 0 0 -775.07 858.8 0 0 775.07 125.21 0 0 -1646.94 -125.21 0z"/>
      <path fill="#FF8000" fill-rule="nonzero" d="M12771.8 138.96c-845.75,-0.77 -1531.71,685.2 -1532.48,1530.95 -0.77,845.75 685.2,1531.71 1530.95,1532.48 845.75,0.77 1531.71,-685.2 1532.48,-1530.95 0,-0.77 0,-0.77 0,-1.54 -0.77,-844.98 -685.97,-1530.18 -1530.95,-1530.94zm-605.31 1326.61c38.41,-490.86 440.16,-914.88 493.93,-844.98 40.71,25.35 -355.66,551.54 -288.06,998.61 24.58,170.53 76.82,202.03 237.36,202.03 66.06,0 162.08,-49.93 167.46,40.71 11.52,71.44 -670.61,245.05 -610.69,-396.37zm844.98 672.91c-115.22,384.08 -785.83,377.17 -934.08,370.25 -148.25,-6.92 -159.01,-46.09 -159.01,-69.9 0,-23.81 35.34,-33.8 176.68,-51.47 192.81,-15.36 381.01,-64.53 556.15,-145.18 91.41,-56.84 167.46,-135.96 219.69,-230.45 33.03,-106.01 178.21,-0.77 143.65,124.44l-3.08 2.31zm788.9 46.09c-50.7,30.73 -201.26,-193.58 -369.49,-349.51 -144.41,-132.89 -315.71,-231.98 -503.15,-289.6 -209.71,-49.16 -221.23,72.21 -275,49.93 -122.91,-99.09 49.93,-327.24 192.04,-307.26 420.96,64.52 1076.2,793.51 958.67,896.44l-3.07 0z"/>
     </g>
    </g>
   </g>
  </g>
 </g>
</svg>
